<?xml version="1.0" encoding="UTF-8" standalone="no"?>
<svg width="54px" height="55px" viewBox="0 0 54 55" version="1.1" xmlns="http://www.w3.org/2000/svg" xmlns:xlink="http://www.w3.org/1999/xlink">
    <!-- Generator: Sketch 42 (36781) - http://www.bohemiancoding.com/sketch -->
    <title>logo-color</title>
    <desc>Created with Sketch.</desc>
    <defs></defs>
    <g id="Page-1" stroke="none" stroke-width="1" fill="none" fill-rule="evenodd">
        <g id="logo-color" transform="translate(2.000000, 2.000000)">
            <g id="Page-1">
                <g id="logo">
                    <path d="M25,50.5 C11.2,50.5 0,39.3 0,25.5 C0,11.7 11.2,0.5 25,0.5" id="Stroke-4" stroke="#DEDEDE" stroke-width="4"></path>
                    <g id="Group-9" transform="translate(25.000000, 0.000000)">
                        <path d="M-7.10542736e-15,0.5 L-7.10542736e-15,14.3 C6.2,14.3 11.2,19.3 11.2,25.5 C11.2,31.7 6.2,36.7 -7.10542736e-15,36.7 L-7.10542736e-15,50.5 C13.8,50.5 25,39.3 25,25.5 C25,11.7 13.8,0.5 -7.10542736e-15,0.5 Z" id="Shape" fill="#DEDEDE" fill-rule="nonzero"></path>
                        <path d="M-7.10542736e-15,0.5 C13.8,0.5 25,11.7 25,25.5 C25,39.3 13.8,50.5 -7.10542736e-15,50.5" id="Stroke-8" stroke="#DEDEDE" stroke-width="4"></path>
                    </g>
                    <path d="M25,14.3 C18.8,14.3 13.8,19.3 13.8,25.5 C13.8,31.7 18.8,36.7 25,36.7" id="Fill-12_1_" fill="#DEDEDE" fill-rule="nonzero"></path>
                    <path d="M25,36.7 C31.2,36.7 36.2,31.7 36.2,25.5 C36.2,19.3 31.2,14.3 25,14.3" id="Fill-12_2_"></path>
                </g>
            </g>
        </g>
    </g>
</svg>