<?xml version="1.0" encoding="UTF-8" standalone="no"?>
<svg width="195px" height="55px" viewBox="0 0 195 55" version="1.1" xmlns="http://www.w3.org/2000/svg" xmlns:xlink="http://www.w3.org/1999/xlink">
    <!-- Generator: Sketch 42 (36781) - http://www.bohemiancoding.com/sketch -->
    <title>logo</title>
    <desc>Created with Sketch.</desc>
    <defs></defs>
    <g id="Page-1" stroke="none" stroke-width="1" fill="none" fill-rule="evenodd">
        <g id="logo" transform="translate(2.000000, 2.000000)">
            <path d="M76.1,17.1 C73.4,16.8 71,17.5 69.3,19.1 C68.8,19.6 68.3,20.2 68,20.9 L68,17.5 L66.5,17.5 L66.5,37.6 L68,37.6 L68,25.5 C68,23.4 68.8,21.4 70.2,20.2 C71.4,19 73.5,18.3 76.1,18.5 L76.1,17.1 L76.1,17.1 Z M100,27.6 C100.1,22.5 96,17.1 90,17.1 C84.5,17.1 80,21.9 80,27.7 C80,33.5 84.5,38.2 90.3,38.2 C95,38.2 98.3,35.8 99.7,31.5 L98.2,31.5 C97.2,34.2 95.1,36.8 90.4,36.8 C85.5,36.8 81.6,32.9 81.6,27.7 L100,27.7 L100,27.6 Z M81.6,26.1 C82.3,21.8 85.8,18.5 90,18.5 C94.2,18.5 97.8,21.8 98.5,26.1 L81.6,26.1 L81.6,26.1 Z M114.7,19 L114.7,17.6 L109.3,17.6 L109.3,16.3 C109.3,12.7 110.9,10.4 114.7,10.6 L114.7,9.3 C110.4,8.9 107.8,11.8 107.8,16.2 L107.8,17.6 L105.1,17.6 L105.1,19 L107.8,19 L107.8,37.6 L109.3,37.6 L109.3,19 L114.7,19 L114.7,19 Z M123.2,8.6 L121.8,8.6 L121.8,37.6 L123.2,37.6 L123.2,8.6 Z M150,27.6 C150.1,22.5 146,17.1 140,17.1 C134.5,17.1 130,21.9 130,27.7 C130,33.5 134.5,38.2 140.3,38.2 C145,38.2 148.3,35.8 149.7,31.5 L148.2,31.5 C147.2,34.2 145.1,36.8 140.4,36.8 C135.5,36.8 131.6,32.9 131.6,27.7 L150,27.7 L150,27.6 Z M131.6,26.1 C132.3,21.8 135.8,18.5 140,18.5 C144.2,18.5 147.8,21.8 148.5,26.1 L131.6,26.1 L131.6,26.1 Z M176.2,31.4 L174.7,31.4 C173.5,34.6 170.6,36.7 166.9,36.7 C162.2,36.7 158.3,32.6 158.3,27.7 C158.3,22.7 162.2,18.6 166.9,18.6 C170.5,18.6 173.3,20.6 174.6,23.8 L176.2,23.8 C174.8,19.7 171.4,17.1 166.9,17.1 C161.4,17.1 156.9,21.9 156.9,27.7 C156.9,33.5 161.4,38.2 166.9,38.2 C171.3,38.1 174.8,35.5 176.2,31.4 L176.2,31.4 Z M185.9,19 L191.3,19 L191.3,17.6 L185.9,17.6 L185.9,13.3 L184.5,13.3 L184.5,17.6 L181.8,17.6 L181.8,19 L184.5,19 L184.5,30.7 C184.5,35.2 187,38 191.4,37.6 L191.4,36.3 C187.6,36.5 186,34.1 186,30.7 L186,19 L185.9,19 Z" id="Stroke-2" stroke="#269CFF" stroke-width="2.5"></path>
            <path d="M25,50.5 C11.2,50.5 0,39.3 0,25.5 C0,11.7 11.2,0.5 25,0.5" id="Stroke-4" stroke="#269CFF" stroke-width="4"></path>
            <g id="Group-9" transform="translate(25.000000, 0.000000)">
                <path d="M0,0.5 L0,14.3 C6.2,14.3 11.2,19.3 11.2,25.5 C11.2,31.7 6.2,36.7 0,36.7 L0,50.5 C13.8,50.5 25,39.3 25,25.5 C25,11.7 13.8,0.5 0,0.5 Z" id="Shape" fill="#269CFF" fill-rule="nonzero"></path>
                <path d="M0,0.5 C13.8,0.5 25,11.7 25,25.5 C25,39.3 13.8,50.5 0,50.5" id="Stroke-8" stroke="#269CFF" stroke-width="4"></path>
            </g>
            <path d="M25,14.3 C18.8,14.3 13.8,19.3 13.8,25.5 C13.8,31.7 18.8,36.7 25,36.7" id="Fill-12_1_" fill="#269CFF" fill-rule="nonzero"></path>
            <path d="M25,36.7 C31.2,36.7 36.2,31.7 36.2,25.5 C36.2,19.3 31.2,14.3 25,14.3" id="Fill-12_2_"></path>
        </g>
    </g>
</svg>
