<?xml version="1.0" encoding="UTF-8"?>
<svg width="22px" height="24px" viewBox="0 0 22 24" version="1.1" xmlns="http://www.w3.org/2000/svg" xmlns:xlink="http://www.w3.org/1999/xlink">
    <!-- Generator: Sketch 45.2 (43514) - http://www.bohemiancoding.com/sketch -->
    <title>single-05</title>
    <desc>Created with Sketch.</desc>
    <defs></defs>
    <g id="Page-1" stroke="none" stroke-width="1" fill="none" fill-rule="evenodd">
        <g id="Social-Sidekick" transform="translate(-869.000000, -29.000000)" stroke="#ADB7C6" stroke-width="2">
            <g id="Masthead" transform="translate(210.000000, 0.000000)">
                <g id="single-05" transform="translate(660.000000, 30.000000)">
                    <path d="M6.677,13.997 L0.971,17.418 C0.369,17.779 0,18.43 0,19.132 L0,22 L20,22 L20,19.132 C20,18.429 19.631,17.778 19.029,17.417 L13.323,13.996" id="Shape"></path>
                    <path d="M10,15 L10,15 C6.686,15 4,12.314 4,9 L4,6 C4,2.686 6.686,0 10,0 L10,0 C13.314,0 16,2.686 16,6 L16,9 C16,12.314 13.314,15 10,15 Z" id="Shape" stroke-linecap="square"></path>
                </g>
            </g>
        </g>
    </g>
</svg>