<?xml version="1.0" encoding="UTF-8"?>
<svg width="144px" height="40px" viewBox="0 0 144 40" version="1.1" xmlns="http://www.w3.org/2000/svg" xmlns:xlink="http://www.w3.org/1999/xlink">
    <!-- Generator: Sketch 45.2 (43514) - http://www.bohemiancoding.com/sketch -->
    <title>Logo</title>
    <desc>Created with Sketch.</desc>
    <defs></defs>
    <g id="Page-1" stroke="none" stroke-width="1" fill="none" fill-rule="evenodd">
        <g id="Social-Sidekick" transform="translate(-30.000000, -34.000000)">
            <g id="Sidebar">
                <g id="Logo" transform="translate(30.000000, 30.000000)">
                    <polygon id="Combined-Shape" fill="#EC6651" points="24.5 4 24.5 43.6666667 0 16.2051282 8.64705882 4 24.5 4"></polygon>
                    <polygon id="Combined-Shape" fill="#FF9A41" points="24 4 24 43.6666667 48.5 16.2051282 39.8529412 4"></polygon>
                    <path d="M11.6666667,29.3769276 L14.5170375,25.4818519 C16.8264685,27.7938602 20.3726851,29.7861224 24.8333333,29.9109299 L24.8333333,36.057971 C21.6311987,36.043336 18.8812235,35.5252579 16.5353257,34.636471 L11.6666667,29.3769276 L11.6666667,29.3769276 Z M24.8333333,22.6035588 C19.1426971,21.3160337 11.6746632,19.9435596 11.6746632,12.3709769 C11.6746632,8.87289123 13.7118019,5.76196436 17.3058535,4 L24.8333333,4 L24.8333333,8.64788472 C24.5064702,8.62794094 24.180473,8.61804984 23.8562672,8.61804984 C20.8108662,8.61804984 19.085139,9.88527196 19.085139,11.8348445 C19.085139,13.6779452 21.6066031,14.4084107 24.8333333,15.1555224 L24.8333333,22.6035588 L24.8333333,22.6035588 Z M33.2491545,34.1464323 C31.1752345,35.358768 28.4177094,36.057971 24.9675627,36.057971 C24.922728,36.057971 24.877985,36.0578648 24.8333333,36.0576526 L24.8333334,29.9106781 C24.9747458,29.9147924 25.1171138,29.9168774 25.2604264,29.9168774 C29.1164659,29.9168774 30.9224591,28.211018 30.9224591,26.3102033 C30.9224591,24.1561437 28.2016711,23.3958522 24.8333334,22.603378 L24.8333334,15.155414 C30.3462739,16.4827498 38,17.8626282 38,25.6278596 C38,27.0775454 37.7446859,28.4403203 37.2319356,29.6723934 L33.2491545,34.1464323 L33.2491545,34.1464323 Z M24.8333334,8.64783954 L24.8333334,8.64783954 L24.8333334,4 L32.5539077,4 C34.2922889,4.74136112 35.8522993,5.74829064 37.21903,7.00962328 L33.3629905,12.1759402 C30.974803,9.96790775 27.8653297,8.84021288 24.8333334,8.64783954 Z" id="Combined-Shape" fill="#FFFFFF"></path>
                    <g id="Group" transform="translate(64.000000, 0.000000)" fill="#FFFFFF">
                        <path d="M5.472,18.216 C8.694,18.216 10.278,16.56 10.278,14.364 C10.278,9.882 3.384,11.16 3.384,9.27 C3.384,8.55 3.996,8.082 5.076,8.082 C6.3,8.082 7.596,8.496 8.568,9.396 L9.99,7.488 C8.802,6.39 7.218,5.814 5.31,5.814 C2.484,5.814 0.756,7.47 0.756,9.468 C0.756,13.986 7.668,12.528 7.668,14.616 C7.668,15.318 7.002,15.948 5.58,15.948 C3.924,15.948 2.61,15.192 1.764,14.31 L0.36,16.308 C1.494,17.442 3.15,18.216 5.472,18.216 Z M17.694,18.216 C14.058,18.216 11.412,15.624 11.412,12.006 C11.412,8.388 14.058,5.796 17.694,5.796 C21.312,5.796 23.958,8.388 23.958,12.006 C23.958,15.624 21.312,18.216 17.694,18.216 Z M17.694,15.948 C19.908,15.948 21.33,14.238 21.33,12.006 C21.33,9.756 19.908,8.064 17.694,8.064 C15.462,8.064 14.04,9.756 14.04,12.006 C14.04,14.238 15.462,15.948 17.694,15.948 Z M31.59,18.216 C34.218,18.216 35.748,16.758 36.594,15.264 L34.398,14.202 C33.894,15.174 32.814,15.948 31.59,15.948 C29.394,15.948 27.81,14.274 27.81,12.006 C27.81,9.738 29.394,8.064 31.59,8.064 C32.814,8.064 33.894,8.838 34.398,9.81 L36.594,8.73 C35.748,7.218 34.218,5.796 31.59,5.796 C27.972,5.796 25.182,8.298 25.182,12.006 C25.182,15.696 27.972,18.216 31.59,18.216 Z M40.68,18 L40.68,5.994 L38.124,5.994 L38.124,18 L40.68,18 Z M54.252,18 L51.354,18 L50.598,15.966 L45.45,15.966 L44.694,18 L41.796,18 L46.422,5.994 L49.626,5.994 L54.252,18 Z M49.896,13.716 L48.024,8.55 L46.152,13.716 L49.896,13.716 Z M62.91,18 L62.91,15.75 L57.834,15.75 L57.834,5.994 L55.26,5.994 L55.26,18 L62.91,18 Z M5.472,40.216 C8.694,40.216 10.278,38.56 10.278,36.364 C10.278,31.882 3.384,33.16 3.384,31.27 C3.384,30.55 3.996,30.082 5.076,30.082 C6.3,30.082 7.596,30.496 8.568,31.396 L9.99,29.488 C8.802,28.39 7.218,27.814 5.31,27.814 C2.484,27.814 0.756,29.47 0.756,31.468 C0.756,35.986 7.668,34.528 7.668,36.616 C7.668,37.318 7.002,37.948 5.58,37.948 C3.924,37.948 2.61,37.192 1.764,36.31 L0.36,38.308 C1.494,39.442 3.15,40.216 5.472,40.216 Z M14.544,40 L14.544,27.994 L11.988,27.994 L11.988,40 L14.544,40 Z M21.672,40 L16.92,40 L16.92,27.994 L21.654,27.994 C25.416,27.994 28.026,30.388 28.026,33.988 C28.026,37.624 25.416,40 21.672,40 Z M21.654,37.75 C24.03,37.75 25.416,36.04 25.416,33.988 C25.416,31.882 24.12,30.244 21.672,30.244 L19.476,30.244 L19.476,37.75 L21.654,37.75 Z M38.34,40 L38.34,37.75 L32.4,37.75 L32.4,35.014 L38.214,35.014 L38.214,32.764 L32.4,32.764 L32.4,30.244 L38.34,30.244 L38.34,27.994 L29.844,27.994 L29.844,40 L38.34,40 Z M50.616,40 L45.522,33.628 L50.292,27.994 L47.142,27.994 L42.894,33.34 L42.894,27.994 L40.338,27.994 L40.338,40 L42.894,40 L42.894,36.31 L43.83,35.176 L47.466,40 L50.616,40 Z M54.342,40 L54.342,27.994 L51.786,27.994 L51.786,40 L54.342,40 Z M62.55,40.216 C65.178,40.216 66.708,38.758 67.554,37.264 L65.358,36.202 C64.854,37.174 63.774,37.948 62.55,37.948 C60.354,37.948 58.77,36.274 58.77,34.006 C58.77,31.738 60.354,30.064 62.55,30.064 C63.774,30.064 64.854,30.838 65.358,31.81 L67.554,30.73 C66.708,29.218 65.178,27.796 62.55,27.796 C58.932,27.796 56.142,30.298 56.142,34.006 C56.142,37.696 58.932,40.216 62.55,40.216 Z M79.362,40 L74.268,33.628 L79.038,27.994 L75.888,27.994 L71.64,33.34 L71.64,27.994 L69.084,27.994 L69.084,40 L71.64,40 L71.64,36.31 L72.576,35.176 L76.212,40 L79.362,40 Z" id="SOCIAL-SIDEKICK"></path>
                    </g>
                </g>
            </g>
        </g>
    </g>
</svg>