<?xml version="1.0" encoding="UTF-8"?>
<svg width="49px" height="40px" viewBox="0 0 49 40" version="1.1" xmlns="http://www.w3.org/2000/svg" xmlns:xlink="http://www.w3.org/1999/xlink">
    <!-- Generator: Sketch 45.2 (43514) - http://www.bohemiancoding.com/sketch -->
    <title>Logo</title>
    <desc>Created with Sketch.</desc>
    <defs></defs>
    <g id="Page-1" stroke="none" stroke-width="1" fill="none" fill-rule="evenodd">
        <g id="Social-Sidekick" transform="translate(-30.000000, -34.000000)">
            <g id="Sidebar">
                <g id="Logo" transform="translate(30.000000, 34.000000)">
                    <polygon id="Combined-Shape" fill="#EC6651" points="24.5 1.76155387e-15 24.5 39.6666667 0 12.2051282 8.64705882 0 24.5 0"></polygon>
                    <polygon id="Combined-Shape" fill="#FF9A41" points="24 1.76155387e-15 24 39.6666667 48.5 12.2051282 39.8529412 0"></polygon>
                    <path d="M11.6666667,25.3769276 L14.5170375,21.4818519 C16.8264685,23.7938602 20.3726851,25.7861224 24.8333333,25.9109299 L24.8333333,32.057971 C21.6311987,32.043336 18.8812235,31.5252579 16.5353257,30.636471 L11.6666667,25.3769276 L11.6666667,25.3769276 Z M24.8333333,18.6035588 C19.1426971,17.3160337 11.6746632,15.9435596 11.6746632,8.37097689 C11.6746632,4.87289123 13.7118019,1.76196436 17.3058535,0 L24.8333333,1.81664935e-15 L24.8333333,4.64788472 C24.5064702,4.62794094 24.180473,4.61804984 23.8562672,4.61804984 C20.8108662,4.61804984 19.085139,5.88527196 19.085139,7.83484445 C19.085139,9.67794524 21.6066031,10.4084107 24.8333333,11.1555224 L24.8333333,18.6035588 L24.8333333,18.6035588 Z M33.2491545,30.1464323 C31.1752345,31.358768 28.4177094,32.057971 24.9675627,32.057971 C24.922728,32.057971 24.877985,32.0578648 24.8333333,32.0576526 L24.8333334,25.9106781 C24.9747458,25.9147924 25.1171138,25.9168774 25.2604264,25.9168774 C29.1164659,25.9168774 30.9224591,24.211018 30.9224591,22.3102033 C30.9224591,20.1561437 28.2016711,19.3958522 24.8333334,18.603378 L24.8333334,11.155414 C30.3462739,12.4827498 38,13.8626282 38,21.6278596 C38,23.0775454 37.7446859,24.4403203 37.2319356,25.6723934 L33.2491545,30.1464323 L33.2491545,30.1464323 Z M24.8333334,4.64783954 L24.8333334,4.64783954 L24.8333334,1.54633193e-13 L32.5539077,0 C34.2922889,0.741361116 35.8522993,1.74829064 37.21903,3.00962328 L33.3629905,8.17594016 C30.974803,5.96790775 27.8653297,4.84021288 24.8333334,4.64783954 Z" id="Combined-Shape" fill="#FFFFFF"></path>
                </g>
            </g>
        </g>
    </g>
</svg>