<svg width="54" height="55" viewBox="0 0 54 55" xmlns="http://www.w3.org/2000/svg"><title>logo-color</title><g fill="none" fill-rule="evenodd"><path d="M27 52.5c-13.8 0-25-11.2-25-25s11.2-25 25-25" stroke="#DEDEDE" stroke-width="4"/><path d="M27 2.5v13.8c6.2 0 11.2 5 11.2 11.2 0 6.2-5 11.2-11.2 11.2v13.8c13.8 0 25-11.2 25-25s-11.2-25-25-25z" fill="#DEDEDE" fill-rule="nonzero"/><path d="M27 2.5c13.8 0 25 11.2 25 25s-11.2 25-25 25" stroke="#DEDEDE" stroke-width="4"/><path d="M27 16.3c-6.2 0-11.2 5-11.2 11.2 0 6.2 5 11.2 11.2 11.2" fill="#DEDEDE" fill-rule="nonzero"/><path d="M27 38.7c6.2 0 11.2-5 11.2-11.2 0-6.2-5-11.2-11.2-11.2"/></g></svg>